<?xml version="1.0" encoding="utf-8"?>

<!DOCTYPE svg PUBLIC "-//W3C//DTD SVG 1.1//EN" "http://www.w3.org/Graphics/SVG/1.1/DTD/svg11.dtd">
<svg version="1.1" id="Layer_1" xmlns="http://www.w3.org/2000/svg" xmlns:xlink="http://www.w3.org/1999/xlink" x="0px" y="0px"
	 viewBox="0 0 1920 1504" enable-background="new 0 0 1920 1504" xml:space="preserve">
<g>
	<path d="M898.88,23.14c23.53-3.29,47.37-4.75,71.1-3.15c52.96,3.62,103.63,21.74,151.65,43.43
		c39.5599,18.05,77.9301,38.63,115.5599,60.41c69.1901,40.11,135.9801,84.3,200.67,131.31c63.91,46.48,126,95.5,185.52,147.49
		c25.4301,22.49,50.76,45.21,73.62,70.35c22.15,24.35,41.78,51.6,53.7,82.49c8.52,21.86,13.15,45.1,14.79,68.46
		c0.25,15.35,0.84,30.78-0.99,46.05c-2.13,24.48-7.51,48.58-14.77,72.02c-3.3099,10.05-6.4,20.29-11.1899,29.76
		c17.2999,12.68,33.1799,27.21,48.73,41.96c25.26,24.4901,49.24,50.41,70.6799,78.34c8.9401,12.01,17.64,24.34,24.12,37.88
		c1.88,4.14,3.92,8.58,3.0601,13.26c-5.42-0.66-8.9401-5.2-12.6901-8.65c-14.7-14.63-29.0399-29.61-44.11-43.86
		c-5.85-4.84-10.84-10.69-17.21-14.89c-24.6801-21.45-50.86-41.11-76.0599-61.92c-3.8501-2.9-7.64-5.91-10.7201-9.63
		c-9.15,20.09-20.9099,38.87-32.59,57.57c-19.35,29.69-40.99,57.9-64.52,84.38c-2.27,3.35-5.5699,5.78-8.14,8.87
		c-5.4199,7.81-13.72,13.03-19.26,20.75c-4.4099,6.28-11.2899,10.03-16.39,15.62c-4.33,4-7.86,8.85-12.6799,12.29
		c-33.67,30.6801-70.27,58.49-109.91,81.12c-14.45,8.61-29.6899,15.73-44.73,23.2001c-43.72,19.8999-90.17,34.8199-138.09,39.8199
		c-8.3101,1.24-16.72,0.8-25.0601,1.62c-33.6899,0.48-68.5499-5.14-97.7999-22.72c-9-4.99-16.8301-11.73-24.74-18.21
		c-5.2101-4.4901-9.2101-10.1001-13.64-15.3c-6.8-8.33-12.4701-17.5601-16.89-27.36c-10.12-18.54-14.5601-39.41-18.23-60.01
		c-4.11-24.73-4.4801-49.86-4.14-74.88c-0.23-8.39,1.15-16.69,0.97-25.07c2.98-47.85,8.5699-95.49,14.5699-143.05
		c8.4401-70.87,18.15-141.64,23.12-212.87c1.3101-7.28,0.65-14.69,0.91-22.04c0.52-21.77,0.47-43.66-2.64-65.26
		c-2.58-18.8-7.84-37.42-17.08-54.08c-9.4301-17.2-22.48-32.01-35.59-46.46c-14.9601-16.7-30.48-32.92-44.8801-50.12
		c-8.5099-10.3-16.68-20.94-23.37-32.52c-8.25-14.33-14.12-30.18-15.91-46.67c-0.9-12.01-0.31-24.77,5.79-35.47
		c3.72-6.73,10.76-11.69,18.58-11.92c11.22-0.47,21.68,4.78,30.9399,10.6c20.6901,13.5,37.7301,31.94,52.02,51.95
		c13.0901,18.43,23.5801,38.67,30.9,60.07c7.28,20.6,11.52,42.14,14.16,63.79c3.5,26.89,4.02,54.03,4.48,81.11
		c0.13,12.01-0.58,24-0.7,36.01c-0.1801,13.34-0.6801,26.67-1.74,39.97c-0.4901,20.71-2.1101,41.37-3.2101,62.05
		c-0.2999,10-1.7999,19.9399-1.6899,29.95c-2.67,38.38-4.86,76.76-7,115.18c-0.8301,7.92-0.29,15.91-1.13,23.82
		c-0.72,7-0.24,14.06-0.86,21.07c-0.87,8.81-0.41,17.67-0.8401,26.5c-1.01,14.46-0.62,28.97-0.76,43.45
		c0.14,13.67-0.3099,27.36,0.8501,41c-0.12,14.37,1.5199,28.65,2.25,42.99c2.0499,22.68,4.89,45.34,10.0399,67.54
		c4.2101,17.89,9.87,35.6599,19.23,51.58c7.8301,13.36,19.0701,25.02,33.0701,31.91c17.27,8.7,36.9,10.97,55.98,11.63
		c23.35,0.7,46.71-1.5601,69.65-5.87c36.5599-6.88,72.17-19.29,104.62-37.5801c34.15-19.1399,64.73-44.0099,93.09-70.85
		c23.4301-22.24,45.66-45.7599,66.38-70.55c25.47-30.72,48.64-63.59,66.67-99.26c17.5-34.42,29.22-71.98,32.5-110.53
		c1.22-14.61,2.11-29.31,1.0699-43.97c-2.37-44.36-13.25-88.37-32.63-128.39c-15.88-32.96-37.46-62.94-62.1-89.89
		c-25.9-28.5-55.01-53.86-84.74-78.25c-29.67-24.18-60.29-47.14-91.01-69.94c-29.96-21.99-60.49-43.22-91.65-63.48
		c-49.98-32.58-100.34-64.69-152.87-93.05c-16.9099-8.93-33.6699-18.27-51.38-25.54c-25.09-11.53-50.71-22.1-77.36-29.49
		c-16.74-4.5-33.88-7.46-51.15-8.92c-6.66-1.06-13.44-0.38-20.1-1.34c-13.98-0.55-27.99-0.18-41.97,0.04
		c-6.67-0.08-13.3,1.2-19.97,0.52c-11.32-1.31-22.7599-0.17-34.05-1.76c-7.72,0.2-15.31-1.31-23.01-1.28
		c-7.29-1.13-14.69-0.6-21.99-1.57c-14.32-0.59-28.66,0.01-42.99-0.29c-7.69-0.34-15.29,0.99-22.94,1.39
		c-26.38,2.91-52.66,7.63-78.03,15.5c-23.19,7.13-46.03,15.75-67.55,27.05c-25.27,12.15-48.63,28.04-69.86,46.31
		c-12.19,10.07-22.96,21.68-34.15,32.82c-5.01,5.69-10.29,11.16-14.56,17.46c-22.12,26.1-40.98,54.68-59.94,83.09
		c-14.7,20.66-28.82,42.08-47.42,59.52c-20.72,21.88-46.58,37.92-68.69,58.24c-4.7,3.34-7.91,8.19-11.81,12.35
		c-5.66,6.52-8.81,14.74-11.09,22.96c-2.27,13.76,2.74,27.26,8.44,39.53c1.73,2.75,3.79,5.31,4.98,8.37
		c7.3,13.04,15.71,25.44,23.13,38.44c3.63,5.97,6.88,12.23,9.14,18.86c0.88,2.19,2.06,4.25,3.12,6.35c0.56,4.56,2.91,8.7,2.86,13.36
		c2.42,12.7,0.13,25.9-5.01,37.66c-8.02,18.48-20.3,34.66-32.24,50.74c-21.55,28.35-43.25,56.71-61.84,87.14
		c-4.92,7.16-8.81,14.96-13.77,22.1c-31.49,51.31-60.11,104.31-91.33,155.78c-7.14,11.99-14.54,23.9-20.4,36.6
		c-1.89,4.41-3.82,9.12-3.32,14.03c0.37,3.08,3.26,5.17,6.22,5.38c18.22,1.66,36.12-2.96,54.09-5.1c10.6-1.48,21.28-2.21,31.97-2.5
		c22.46,0.22,45.5,4.53,64.93,16.27c9.35,5.81,18.13,14.01,21.2,24.92c3.04,10.12,0.41,20.9-3.57,30.38
		c-9.84,22.64-26.14,41.5599-41.9,60.26c-2.44,2.9299-5.29,5.5-7.56,8.59c-3.14,4.41-7.43,7.79-11.08,11.76
		c-3.61,4.11-8.47,6.8099-12.16,10.85c-8.16,6.6901-16.58,13.3101-26.17,17.83c-12.25,5.9401-27.17,5.76-39.42-0.0499
		c-2.34-1.1-4.75-2.02-7.24-2.6801c4.03,9.89,11.26,17.97,17.7,26.35c23.88,27.9801,57.34,46.29,92.28,56.64
		c43.96,13.03,90.55,13.8,135.89,9.4501c47.92-4.8301,95.17-15.01,141.52-27.9401c73.59-20.8099,145.48-49.61,209.95-91.13
		c31.62-20.2799,61.2-43.6899,88.36-69.63c27.36-25.6599,52.3-53.71,77.68-81.28c4.51-4.61,8.51-9.8,13.77-13.62
		c-1.58,8.35-5.5,16-8.41,23.93c-8.09,20.14-16.12,40.33-23.1,60.9c-5.56,16.29-9.05,33.28-10.68,50.41
		c-0.93,8.95-0.05,18.08,2.48,26.72c2.3101,7.47,5.83,14.5,9.3101,21.49c18.61,36.24,33.18,74.36,47.5,112.4399
		c15.03,40.5701,29.04,81.51,42.3199,122.6801c6.55,20.7,13.09,41.41,18.64,62.41c1.56,6.21,3.42,12.4099,3.8,18.85
		c-2.58-2.71-3.56-6.4-4.89-9.78c-6.9901-19.17-12.66-38.78-18.84-58.21c-13.14-41.89-26.93-83.65-43.83-124.2001
		c-13.72-33.1599-30.54-64.99-49.78-95.26c-15.8-25.1899-33.29-49.25-50.38-73.5599c-2.59-3.61-4.72-8.14-9.17-9.74
		c-7.69-3.01-15.9901-0.05-23.06,3.23c-14.54,7.0601-27.22,17.24-39.94,27.0699c-17.03,13.3501-33.6,27.3501-51.66,39.3301
		c-32.1,19.79-66.58,35.36-101.1,50.39c-20.12,7.7899-40.19,15.76-60.64,22.6599c-41.98,14.2201-84.91,25.91-128.62,33.4601
		c-26.47,4.36-53.27,7.1799-80.13,6.7999c-24.27,0.27-48.56-2.26-72.25-7.5699c-21.79-4.52-42.76-12.26-63.24-20.85
		c-33.77-15.2001-65.41-35.2201-93.41-59.4701c-3.31-3.7699-7.88-6.09-11.07-9.96c-4.08-4.6-8.7-8.65-13-13.02
		c-5.74-7.26-11.9-14.1899-17.39-21.6499C57.7,1125,50.83,1112.24,44.76,1099.22c-4.71-10.9-8.46-22.2999-10.27-34.0599
		c-2.72-16.63-0.24-33.7001,4.91-49.6201c8.87-27.12,23.18-52,37.6-76.46c22.03-36.77,46.05-72.3,70.73-107.33
		c19.55-28.04,40.67-54.96,59.58-83.44c12.61-19.08,23.61-39.42,30.78-61.2c11.94-36.4,11.88-75.21,11.25-113.1
		c0.22-10.61-1.05-21.16-0.94-31.75c0.07-15.43-1.86-30.87-0.27-46.27c0.35-12.58,1.99-25.22,5.89-37.22
		c3.87-11.94,10.43-22.8,17.81-32.87c23.78-32,43.85-66.51,64.49-100.55c35.31-58.98,70.34-119.01,117.48-169.54
		c28.13-30.15,60.87-56.05,96.86-76.19c24.69-13.7,50.97-24.74,78.41-31.57c4.43-0.71,8.87-1.4,13.19-2.72
		c41.13-7.93,83.17-4,124.75-4.69C811.56,40.27,854.95,29.08,898.88,23.14z"/>
	<path d="M589.45,455.6c10.07-1.2,20.2,0.09,30.11,1.99c22.6,4.17,45.21,8.51,67.41,14.5c17,4.7,34.03,9.94,49.59,18.39
		c11.62,6.47,22.44,15.06,29.65,26.38c2.36,3.96,4.71,8.27,4.7599,13.01c0.01,1.68-1.36,3.19-3.03,3.34
		c-5.22,0.62-10.58-0.27-15.7,1.16c-5.98,1.53-11.13,5.16-15.73,9.15c-13.19,12.13-24.61,26.24-39.18,36.84
		c-10.58,7.4-23.22,12.65-36.33,12.18c-17.15,0.09-32.76-9.22-45.01-20.54c-15.16-13.8-27.67-30.2-38.69-47.41
		c-8.34-13.31-16.64-27.33-19.12-43.08c-1.32-6.54,0.94-13.87,6.42-17.9C571.74,458.3,580.82,456.7,589.45,455.6z"/>
</g>
</svg>
