<svg height="512" viewBox="0 0 64 64" width="512" xmlns="http://www.w3.org/2000/svg"><g id="flat"><path d="m54 35s3.347-4.183.857-11.019a1.476 1.476 0 0 1 1.386-1.981 1.461 1.461 0 0 1 1.229.656c1.311 2.018 5.486 7.302 1.528 18.344l-3.521-1.668z" fill="#143441"/><path d="m14.311 37-9 4-1.211 4.227a2.66 2.66 0 0 0 2.036 3.339 2.661 2.661 0 0 0 2.992-1.62l1.183-2.946 8-1.667-.679-3.46z" fill="#143441"/><path d="m16.6 28.486-2.292 8.514 6 8h2.692v5l-3 1a3.454 3.454 0 0 0 -2 3.031v.969h10l1.85-9.247 19.547 2.7a10.323 10.323 0 0 0 2.603 4.547l-3.759.752a2 2 0 0 0 -1.548 1.476l-.693 2.772h12v-6s3-4 1-11l-5-6s-13 0-17-4c-1.443-1.443-3.17-3.457-4.685-4.775z" fill="#394d5c"/><path d="m15.006 8s-1-2-5-2-2 5-6 8 4 4 4 8 6 4 6 0l1.994-7.661z" fill="#143441"/><path d="m33.006 8s1-2 5-2 2 5 6 8-4 4-4 8-6 4-6 0l-2.006-7.595z" fill="#143441"/><path d="m34.006 22-3 7.486a4 4 0 0 1 -3.706 2.514h-6.586a4 4 0 0 1 -3.714-2.514l-2.994-7.486 10-11z" fill="#ad6327"/><path d="m27 25v-7a17.038 17.038 0 0 0 7 4l-1-14s-3-2-9-2-9 2-9 2l-1 14a17.038 17.038 0 0 0 7-4v7z" fill="#394d5c"/><g fill="#143441"><circle cx="19" cy="15" r="1"/><path d="m16.925 10.5h3.162v2h-3.162z" transform="matrix(.949 -.316 .316 .949 -2.688 6.445)"/><circle cx="29" cy="15" r="1"/><path d="m28.506 9.919h2v3.162h-2z" transform="matrix(.316 -.949 .949 .316 9.265 35.855)"/></g><path d="m25.006 26.978h-.006v-1.978h-2v2.041c-.047.38-.455 1.959-3.994 1.959v2c2.706 0 4.184-.825 5-1.725.815.9 2.293 1.725 5 1.725v-2c-3.794 0-3.99-1.815-4-2.022z" fill="#301a12"/><ellipse cx="24" cy="25" fill="#143441" rx="3" ry="2"/></g></svg>