<svg width="292" height="310" viewBox="0 0 292 310" fill="none" xmlns="http://www.w3.org/2000/svg">
<path d="M64 0.900097C59.1 2.4001 53.1 6.90009 50 11.5001C38.1 28.7001 49.5 51.5001 70.7 52.8001C88 53.9001 101.5 37.6001 97.5 20.4001C95.5 11.9001 90.9 6.30009 82.5 2.40009C77.4 9.38169e-05 69.3 -0.699903 64 0.900097Z" fill="white"/>
<path d="M216.3 17.7C214.1 20.9 212.1 23.9 211.8 24.5C211.4 25.1 214.8 25.5 221.1 25.5C226.5 25.5 231 25.4 231 25.2C231 24.3 221.7 12 221.1 12C220.6 12 218.5 14.6 216.3 17.7Z" fill="white"/>
<path d="M183.3 29.1999C183.6 30.4999 184.1 33.6999 184.5 36.4999C184.9 39.1999 185.3 41.9999 185.5 42.6999C185.8 43.5999 197.9 32.4999 199.2 30.1999C199.5 29.5999 188.3 27.1999 184.6 27.0999C183.2 26.9999 182.9 27.4999 183.3 29.1999Z" fill="white"/>
<path d="M248 28.2001C245 28.8001 242.4 29.3001 242.3 29.4001C242.2 29.5001 245.2 32.8001 249 36.7001C255.2 43.1001 256 43.6001 256.5 41.7001C259.8 27.3001 259.7 27.0001 256.3 27.1001C254.7 27.2001 251 27.7001 248 28.2001Z" fill="white"/>
<path d="M207.3 31.1C200.7 33.6 192.3 41.3 188.8 47.7C178.9 66 186.6 88.8 205.8 97.8C210.7 100.1 212.8 100.5 221 100.5C229 100.5 231.3 100.1 235.5 98C242.5 94.6 249.7 87.6 253.3 80.5C256.2 75 256.4 73.6 256.5 65C256.5 56.5 256.2 54.9 253.6 49.6C250 42.3 243.9 36 236.8 32.4C229.5 28.6 215.2 27.9 207.3 31.1Z" fill="white"/>
<path d="M174.3 59.7C170.8 62.1 168 64.5 168 64.8C168 65.2 171 67.6 174.8 70.1L181.5 74.8V64.9C181.5 59.4 181.3 55 181 55.1C180.7 55.1 177.7 57.2 174.3 59.7Z" fill="white"/>
<path d="M260.5 64.9C260.5 71.2 260.9 74.6 261.5 74.2C265.1 72.1 274 65.5 274 64.9C274 64.3 261.7 55 260.8 55C260.6 55 260.5 59.5 260.5 64.9Z" fill="white"/>
<path d="M47.4 57.6C42.5 59.3 35.9 64.7 33.1 69.4C31.1 72.6 27.5 86.8 28.4 87.8C28.7 88 31.1 86.7 33.7 84.7C42.3 78.5 49.4 75 53.6 75C61.3 75 67 81.1 67 89.3C67 94.4 63.4 98.9 56 102.7C42.5 109.6 30.9 125.8 25.9 144.5C22.8 156.1 22.7 172.1 25.7 181.6C28.2 189.5 33.8 196.9 39 199C42.6 200.5 43 201.5 47.1 215.5C55.2 243.1 59.2 266 59.5 285.5C59.7 300.6 60.2 302.6 64.9 305.9C69.4 309.1 73.1 309.5 78.3 307.2C84.9 304.3 86.3 301.1 86.8 286.9C87.5 267.1 83.5 242.1 74.6 211L70.1 195.5L72.7 192.1C76.2 187.6 79 179.9 79 174.9C79 172.6 78.5 166.8 77.8 162C77 155.5 77 149.2 77.8 137C78.4 128.1 79.1 120.6 79.3 120.4C79.5 120.2 81.7 121.1 84.1 122.4C94.1 127.9 120.6 133.2 126.6 131C131.9 129 133.8 120.4 130 116.2C128.9 115.1 126.5 113.9 124.8 113.6C103.6 110.6 96.4 108.5 87.3 102.5C81.6 98.7 81.5 98.3 83 93C84.8 87.2 84.3 77.9 82.1 72.8C76.6 59.9 60.7 52.9 47.4 57.6Z" fill="white"/>
<path d="M46.2 81.2C43.8 82.4 38.2 86.3 33.8 89.9C10.4 108.6 -1.1 135.6 0.200002 168.2C0.600002 177.7 0.900002 179.3 2.9 181.4C4.2 182.7 6.3 184.1 7.6 184.4C10.6 185.2 16.5 182.8 17.8 180.3C18.4 179.3 18.8 172.6 18.8 165.5C18.7 146.8 21.7 134.8 29.8 121.5C34.7 113.5 45 103.3 53.2 98.6C60.5 94.3 62.6 91.1 61.5 86.2C60.1 79.7 53.3 77.5 46.2 81.2Z" fill="white"/>
<path d="M186 86.5C186 86.8 185.3 90.5 184.4 94.6C183.6 98.8 183.1 102.4 183.3 102.6C183.9 103.2 199.6 100.6 199.3 100C198.7 98.8 186 86 186 86.5Z" fill="white"/>
<path d="M248.7 93.1L242 99.9L245.7 100.6C247.8 100.9 251.3 101.6 253.5 102.1C255.7 102.5 257.8 102.6 258.2 102.2C258.8 101.5 256.7 87.3 255.9 86.7C255.7 86.5 252.5 89.4 248.7 93.1Z" fill="white"/>
<path d="M215.9 111.2C218.4 115 220.8 118 221.1 118C221.6 118 231 105.4 231 104.7C231 104.6 226.6 104.5 221.1 104.5H211.2L215.9 111.2Z" fill="white"/>
<path d="M136 127.8C136 129.2 140.4 132.7 153.3 141.1C162.7 147.3 184.9 161.9 202.5 173.5C220.1 185.1 237.5 196.6 241.3 199C245 201.4 248 203.7 248 204C248 205 240.9 210.5 237 212.6C234.2 214 231.4 214.4 223.5 214.4C218 214.4 211.7 213.8 209.5 213.2C202.4 211.2 191.3 210.6 185.6 212C178.6 213.6 176.1 212.9 170.1 207.6C164.6 202.7 161.4 201.2 159.7 202.9C158.9 203.7 160.7 205.9 165.8 210.8C172.5 217.2 174.2 220.1 172.1 221.4C171.6 221.7 171 222.9 170.7 224.1C170.2 225.8 170.9 226.5 174.6 228C177 229.1 179.7 229.7 180.5 229.4C183.2 228.3 186.8 231.6 187.5 235.9C188.4 241.2 186.2 245.2 181.3 247.4C174 250.6 172.5 251.9 171.3 255.4C170.6 257.3 169 260.6 167.6 262.7C165.2 266.4 165.2 266.7 166.2 277C166.7 282.7 167.6 288 168.2 288.7C169.4 290.2 177.6 290.5 178.5 289.1C178.8 288.5 178.3 287.5 177.5 286.8C172.3 282.6 172 282 172 276.6C172 271.1 173.5 268.3 174.6 271.7C176.1 276 179.1 281.8 181 283.8C182.5 285.4 184.2 286 187.4 286C189.7 286 192 285.7 192.3 285.3C193.3 284.3 189.9 281 187.9 281C184.8 281 182 276.2 182 270.9C182 267 182.6 265.4 185.5 261.8C191.4 254.5 194.2 249.1 194.8 244.4C195 241.9 195.9 239.6 196.6 239.3C197.3 239.1 199.8 240.2 202.2 241.8C207.7 245.6 216.8 249.4 224.3 251.1C227.5 251.8 230.3 252.7 230.7 253.2C231 253.7 231.4 259.8 231.6 266.7C231.8 273.6 232.2 279.5 232.5 279.8C232.8 280.1 233 282.4 233 285C233 287.5 233.6 290.4 234.3 291.4C235.9 293.5 243.8 294.6 246 293C247.5 292 247.2 291.6 240.3 285.9C239.6 285.4 239 283.4 239 281.5C239 276.5 241.3 277.9 243.8 284.3L245.7 289.5H251.1C255.2 289.5 256.5 289.1 256.5 288C256.5 287.2 255.1 286.1 253.3 285.6C249.1 284.3 248 281.5 248 272.1C248 261.8 249.6 253.4 252.6 248.2C254 245.9 255.8 240.7 256.6 236.7C258.5 227.9 262.5 220.1 266 218.8C267.4 218.3 271.7 216.3 275.5 214.5C279.4 212.6 283.7 210.8 285.2 210.5C289.2 209.7 292.3 204 291.5 199.1C290.8 194.7 289.2 193.7 284.4 194.6C282 195 280.2 194.6 277.7 193.1C275.8 191.9 272.2 190.7 269.7 190.4C266.4 189.9 264.9 189.2 264.5 187.9C263.1 183.7 259.8 186.3 256 194.7C254.6 197.6 253 200.2 252.2 200.5C251.5 200.7 225.8 184.3 195.2 163.8C164.6 143.4 138.7 126.5 137.8 126.2C136.5 125.9 136 126.3 136 127.8ZM241 275.4C241 275.7 240.6 276.2 240 276.5C239.5 276.8 239 276.6 239 276.1C239 275.5 239.5 275 240 275C240.6 275 241 275.2 241 275.4Z" fill="white"/>
<path d="M123.4 146.2C125.2 151.3 133.2 173.6 141.1 195.7C149 217.9 155.8 236 156.2 236C156.6 236 157.2 234.9 157.6 233.5C158.1 231.6 153.8 218.3 141.5 184C125.8 140.1 124.6 137 122.4 137H120L123.4 146.2Z" fill="white"/>
<path d="M33.6 210.7C32.2 216.6 27.1 238.4 22.4 259C12.9 300.5 12.9 300.6 19 306.5C21.7 309.1 22.9 309.5 28 309.5C33.1 309.5 34.3 309.1 37 306.5C38.6 304.9 40.5 302 41 300C44 288.7 51 257.1 51 254.7C51 248.8 39.1 202.8 37.1 200.7C36.6 200.2 35.1 204.7 33.6 210.7Z" fill="white"/>
<path d="M165.3 230.2C164.7 230.9 163.3 233.3 162.2 235.5C159.8 240.3 153.1 245.6 147.6 247.1C144.5 247.9 141.6 247.8 134.4 246.5C128.4 245.4 123.2 245.1 119.7 245.5C114.6 246.2 114.1 246 110.8 243.1C107.4 240.2 105 239.2 105 240.7C105 241.1 106.9 243.3 109.2 245.7C112.8 249.4 113.2 250.2 112.3 252.2C111.8 253.5 111.5 258.5 111.8 263.7C112.2 271.4 111.9 273.4 110.5 275.7C109.1 277.8 108.9 279.6 109.3 284.7C110 292.3 110.4 293 113.6 293C116.3 293 116.7 291.6 114.5 289.4C113 287.8 112.4 282 113.8 282C114.2 282.1 115.4 284 116.5 286.3C118.6 290.7 121.4 292 124.7 290.1C126.4 289.2 126.4 289.1 124.5 288.4C118.3 286.2 117.4 281.3 122 275.5C123.7 273.4 125.5 269.7 126.1 267.3C126.7 264.9 127.4 263 127.6 263C127.9 263 129.8 264.1 131.9 265.4C134 266.8 138.4 268.6 141.6 269.6C144.9 270.5 147.8 271.8 148.2 272.4C148.6 273 149 276 149 279C149 282 149.3 286.8 149.6 289.7C150.2 294.5 150.5 295 153.2 295.6C157.8 296.6 159 294.5 155.7 291.4C152.9 288.8 152 285 154.3 285C155 285 156 286.5 156.5 288.2C157.3 290.8 158.1 291.6 160.4 291.8C164.6 292.3 165.7 290.5 162 289C160.3 288.3 158.6 287 158.1 286.1C156.8 283.7 158.6 269.3 161 262C164.7 250.8 165.8 249.2 171.8 246.5C174.8 245.1 177.8 244 178.4 244C180.6 244 184.2 239.3 183.8 236.8C183.6 235 182.9 234.5 180.5 234.4C178.9 234.4 176.5 233.9 175.3 233.2C174.1 232.5 172.3 232 171.4 232C170.4 232 168.9 231.3 168 230.5C166.6 229.3 166.1 229.2 165.3 230.2Z" fill="white"/>
</svg>
