<?xml version="1.0" standalone="no"?>
<!DOCTYPE svg PUBLIC "-//W3C//DTD SVG 20010904//EN"
 "http://www.w3.org/TR/2001/REC-SVG-20010904/DTD/svg10.dtd">
<svg version="1.0" xmlns="http://www.w3.org/2000/svg"
 width="378.000000pt" height="404.000000pt" viewBox="0 0 378.000000 404.000000"
 preserveAspectRatio="xMidYMid meet">

<g transform="translate(0.000000,404.000000) scale(0.100000,-0.100000)"
fill="#000000" stroke="none">
<path d="M990 3481 c-49 -15 -109 -60 -140 -106 -119 -172 -5 -400 207 -413
173 -11 308 152 268 324 -20 85 -66 141 -150 180 -51 24 -132 31 -185 15z"/>
<path d="M2513 3313 c-22 -32 -42 -62 -45 -68 -4 -6 30 -10 93 -10 54 0 99 1
99 3 0 9 -93 132 -99 132 -5 0 -26 -26 -48 -57z"/>
<path d="M2183 3198 c3 -13 8 -45 12 -73 4 -27 8 -55 10 -62 3 -9 124 102 137
125 3 6 -109 30 -146 31 -14 1 -17 -4 -13 -21z"/>
<path d="M2830 3208 c-30 -6 -56 -11 -57 -12 -1 -1 29 -34 67 -73 62 -64 70
-69 75 -50 33 144 32 147 -2 146 -16 -1 -53 -6 -83 -11z"/>
<path d="M2423 3179 c-66 -25 -150 -102 -185 -166 -99 -183 -22 -411 170 -501
49 -23 70 -27 152 -27 80 0 103 4 145 25 70 34 142 104 178 175 29 55 31 69
32 155 0 85 -3 101 -29 154 -36 73 -97 136 -168 172 -73 38 -216 45 -295 13z"/>
<path d="M2093 2893 c-35 -24 -63 -48 -63 -51 0 -4 30 -28 68 -53 l67 -47 0
99 c0 55 -2 99 -5 98 -3 0 -33 -21 -67 -46z"/>
<path d="M2955 2841 c0 -63 4 -97 10 -93 36 21 125 87 125 93 0 6 -123 99
-132 99 -2 0 -3 -45 -3 -99z"/>
<path d="M824 2914 c-49 -17 -115 -71 -143 -118 -20 -32 -56 -174 -47 -184 3
-2 27 11 53 31 86 62 157 97 199 97 77 0 134 -61 134 -143 0 -51 -36 -96 -110
-134 -135 -69 -251 -231 -301 -418 -31 -116 -32 -276 -2 -371 25 -79 81 -153
133 -174 36 -15 40 -25 81 -165 81 -276 121 -505 124 -700 2 -151 7 -171 54
-204 45 -32 82 -36 134 -13 66 29 80 61 85 203 7 198 -33 448 -122 759 l-45
155 26 34 c35 45 63 122 63 172 0 23 -5 81 -12 129 -8 65 -8 128 0 250 6 89
13 164 15 166 2 2 24 -7 48 -20 100 -55 365 -108 425 -86 53 20 72 106 34 148
-11 11 -35 23 -52 26 -212 30 -284 51 -375 111 -57 38 -58 42 -43 95 18 58 13
151 -9 202 -55 129 -214 199 -347 152z"/>
<path d="M812 2678 c-24 -12 -80 -51 -124 -87 -234 -187 -349 -457 -336 -783
4 -95 7 -111 27 -132 13 -13 34 -27 47 -30 30 -8 89 16 102 41 6 10 10 77 10
148 -1 187 29 307 110 440 49 80 152 182 234 229 73 43 94 75 83 124 -14 65
-82 87 -153 50z"/>
<path d="M2210 2625 c0 -3 -7 -40 -16 -81 -8 -42 -13 -78 -11 -80 6 -6 163 20
160 26 -6 12 -133 140 -133 135z"/>
<path d="M2837 2559 l-67 -68 37 -7 c21 -3 56 -10 78 -15 22 -4 43 -5 47 -1 6
7 -15 149 -23 155 -2 2 -34 -27 -72 -64z"/>
<path d="M2509 2378 c25 -38 49 -68 52 -68 5 0 99 126 99 133 0 1 -44 2 -99 2
l-99 0 47 -67z"/>
<path d="M1710 2212 c0 -14 44 -49 173 -133 94 -62 316 -208 492 -324 176
-116 350 -231 388 -255 37 -24 67 -47 67 -50 0 -10 -71 -65 -110 -86 -28 -14
-56 -18 -135 -18 -55 0 -118 6 -140 12 -71 20 -182 26 -239 12 -70 -16 -95 -9
-155 44 -55 49 -87 64 -104 47 -8 -8 10 -30 61 -79 67 -64 84 -93 63 -106 -5
-3 -11 -15 -14 -27 -5 -17 2 -24 39 -39 24 -11 51 -17 59 -14 27 11 63 -22 70
-65 9 -53 -13 -93 -62 -115 -73 -32 -88 -45 -100 -80 -7 -19 -23 -52 -37 -73
-24 -37 -24 -40 -14 -143 5 -57 14 -110 20 -117 12 -15 94 -18 103 -4 3 6 -2
16 -10 23 -52 42 -55 48 -55 102 0 55 15 83 26 49 15 -43 45 -101 64 -121 15
-16 32 -22 64 -22 23 0 46 3 49 7 10 10 -24 43 -44 43 -31 0 -59 48 -59 101 0
39 6 55 35 91 59 73 87 127 93 174 2 25 11 48 18 51 7 2 32 -9 56 -25 55 -38
146 -76 221 -93 32 -7 60 -16 64 -21 3 -5 7 -66 9 -135 2 -69 6 -128 9 -131 3
-3 5 -26 5 -52 0 -25 6 -54 13 -64 16 -21 95 -32 117 -16 15 10 12 14 -57 71
-7 5 -13 25 -13 44 0 50 23 36 48 -28 l19 -52 54 0 c41 0 54 4 54 15 0 8 -14
19 -32 24 -42 13 -53 41 -53 135 0 103 16 187 46 239 14 23 32 75 40 115 19
88 59 166 94 179 14 5 57 25 95 43 39 19 82 37 97 40 40 8 71 65 63 114 -7 44
-23 54 -71 45 -24 -4 -42 0 -67 15 -19 12 -55 24 -80 27 -33 5 -48 12 -52 25
-14 42 -47 16 -85 -68 -14 -29 -30 -55 -38 -58 -7 -2 -264 162 -570 367 -306
204 -565 373 -574 376 -13 3 -18 -1 -18 -16z m1050 -1476 c0 -3 -4 -8 -10 -11
-5 -3 -10 -1 -10 4 0 6 5 11 10 11 6 0 10 -2 10 -4z"/>
<path d="M1584 2028 c18 -51 98 -274 177 -495 79 -222 147 -403 151 -403 4 0
10 11 14 25 5 19 -38 152 -161 495 -157 439 -169 470 -191 470 l-24 0 34 -92z"/>
<path d="M686 1383 c-14 -59 -65 -277 -112 -483 -95 -415 -95 -416 -34 -475
27 -26 39 -30 90 -30 51 0 63 4 90 30 16 16 35 45 40 65 30 113 100 429 100
453 0 59 -119 519 -139 540 -5 5 -20 -40 -35 -100z"/>
<path d="M2003 1188 c-6 -7 -20 -31 -31 -53 -24 -48 -91 -101 -146 -116 -31
-8 -60 -7 -132 6 -60 11 -112 14 -147 10 -51 -7 -56 -5 -89 24 -34 29 -58 39
-58 24 0 -4 19 -26 42 -50 36 -37 40 -45 31 -65 -5 -13 -8 -63 -5 -115 4 -77
1 -97 -13 -120 -14 -21 -16 -39 -12 -90 7 -76 11 -83 43 -83 27 0 31 14 9 36
-15 16 -21 74 -7 74 4 -1 16 -20 27 -43 21 -44 49 -57 82 -38 17 9 17 10 -2
17 -62 22 -71 71 -25 129 17 21 35 58 41 82 6 24 13 43 15 43 3 0 22 -11 43
-24 21 -14 65 -32 97 -42 33 -9 62 -22 66 -28 4 -6 8 -36 8 -66 0 -30 3 -78 6
-107 6 -48 9 -53 36 -59 46 -10 58 11 25 42 -28 26 -37 64 -14 64 7 0 17 -15
22 -32 8 -26 16 -34 39 -36 42 -5 53 13 16 28 -17 7 -34 20 -39 29 -13 24 5
168 29 241 37 112 48 128 108 155 30 14 60 25 66 25 22 0 58 47 54 72 -2 18
-9 23 -33 24 -16 0 -40 5 -52 12 -12 7 -30 12 -39 12 -10 0 -25 7 -34 15 -14
12 -19 13 -27 3z"/>
</g>
</svg>
