<svg width="512" height="512" viewBox="0 0 512 512" fill="none" xmlns="http://www.w3.org/2000/svg">
<path d="M301.76 273.643C293.397 270.656 288 263.723 288 255.979C288 248.256 293.397 241.344 301.76 238.358C362.539 216.619 394.667 152.641 394.667 53.334C394.667 47.446 389.888 42.667 384 42.667C378.112 42.667 373.333 47.446 373.333 53.334C373.333 144.086 346.837 199.574 294.592 218.262C277.632 224.321 266.667 239.147 266.667 256.022C266.667 272.875 277.632 287.681 294.592 293.739C346.837 312.427 373.333 367.915 373.333 458.667C373.333 464.555 378.112 469.334 384 469.334C389.888 469.334 394.667 464.555 394.667 458.667C394.667 359.36 362.539 295.381 301.76 273.643Z" fill="#F76300"/>
<path d="M217.408 218.261C165.163 199.573 138.667 144.085 138.667 53.333C138.667 47.445 133.888 42.666 128 42.666C122.112 42.666 117.333 47.445 117.333 53.333C117.333 152.64 149.461 216.618 210.24 238.357C218.603 241.344 224 248.277 224 256.021C224 263.744 218.603 270.656 210.24 273.642C149.461 295.381 117.333 359.359 117.333 458.666C117.333 464.554 122.112 469.333 128 469.333C133.888 469.333 138.667 464.554 138.667 458.666C138.667 367.914 165.163 312.426 217.408 293.738C234.368 287.679 245.333 272.853 245.333 255.978C245.333 239.125 234.368 224.32 217.408 218.261Z" fill="#F76300"/>
<path d="M405.333 0H106.667C89.024 0 74.667 14.357 74.667 32C74.667 49.643 89.024 64 106.667 64H405.334C422.977 64 437.334 49.643 437.334 32C437.333 14.357 422.976 0 405.333 0ZM405.333 42.667H106.667C100.8 42.667 96 37.888 96 32C96 26.112 100.8 21.333 106.667 21.333H405.334C411.2 21.333 416 26.112 416 32C416 37.888 411.2 42.667 405.333 42.667Z" fill="#F76300"/>
<path d="M405.333 448H106.667C89.024 448 74.667 462.357 74.667 480C74.667 497.643 89.024 512 106.667 512H405.334C422.977 512 437.334 497.643 437.334 480C437.333 462.357 422.976 448 405.333 448ZM405.333 490.667H106.667C100.8 490.667 96 485.888 96 480C96 474.112 100.8 469.333 106.667 469.333H405.334C411.2 469.333 416 474.112 416 480C416 485.888 411.2 490.667 405.333 490.667Z" fill="#F76300"/>
</svg>
