<?xml version="1.0" standalone="no"?>
<!DOCTYPE svg PUBLIC "-//W3C//DTD SVG 20010904//EN"
 "http://www.w3.org/TR/2001/REC-SVG-20010904/DTD/svg10.dtd">
<svg version="1.0" xmlns="http://www.w3.org/2000/svg"
 width="568.000000pt" height="350.000000pt" viewBox="0 0 568.000000 350.000000"
 preserveAspectRatio="xMidYMid meet">

<g transform="translate(0.000000,350.000000) scale(0.100000,-0.100000)"
fill="#000000" stroke="none">
<path d="M2584 2835 c-144 -31 -266 -98 -375 -205 -130 -129 -205 -295 -216
-480 -8 -133 14 -236 78 -368 44 -90 62 -116 140 -193 49 -49 89 -92 89 -94 0
-3 -6 -5 -14 -5 -26 0 -230 -108 -301 -160 -308 -222 -505 -576 -532 -952 l-6
-88 100 0 100 0 7 86 c20 239 127 479 296 658 127 135 326 252 517 303 87 23
117 26 263 26 146 0 176 -3 263 -26 449 -120 776 -506 813 -961 l7 -86 100 0
100 0 -6 88 c-33 456 -305 857 -721 1063 -55 27 -105 49 -113 49 -7 0 -13 2
-13 5 0 3 40 44 88 92 67 67 98 107 129 168 129 251 123 502 -18 743 -43 72
-168 197 -242 241 -167 98 -361 134 -533 96z m316 -214 c132 -44 257 -154 314
-275 151 -318 -26 -681 -370 -762 -184 -43 -402 30 -524 177 -258 310 -106
775 286 874 80 20 210 14 294 -14z"/>
</g>
</svg>
