<?xml version="1.0" standalone="no"?>
<!DOCTYPE svg PUBLIC "-//W3C//DTD SVG 20010904//EN"
 "http://www.w3.org/TR/2001/REC-SVG-20010904/DTD/svg10.dtd">
<svg version="1.0" xmlns="http://www.w3.org/2000/svg"
 width="664.000000pt" height="399.000000pt" viewBox="0 0 664.000000 399.000000"
 preserveAspectRatio="xMidYMid meet">

<g transform="translate(0.000000,399.000000) scale(0.100000,-0.100000)"
fill="#000000" stroke="none">
<path d="M3245 3059 c-102 -14 -170 -35 -255 -81 l-75 -40 -48 17 c-78 28
-180 17 -271 -29 -191 -97 -426 -393 -496 -625 -42 -135 -11 -255 88 -342 45
-39 134 -79 177 -79 30 0 29 5 9 -118 -23 -140 -15 -320 20 -427 88 -275 313
-434 686 -486 110 -15 450 -15 560 0 373 52 598 211 686 486 35 107 43 287 20
427 -20 123 -21 118 9 118 43 0 132 40 177 79 176 156 131 402 -134 728 -85
104 -190 196 -274 239 -91 46 -196 58 -269 29 l-46 -17 -92 46 c-136 69 -313
97 -472 75z m316 -178 c165 -52 288 -182 381 -402 44 -105 196 -529 225 -629
30 -101 42 -317 24 -415 -49 -263 -267 -406 -673 -440 l-78 -7 0 165 0 164 40
18 c53 24 145 122 175 187 58 124 10 238 -115 275 -76 23 -284 23 -360 0 -125
-37 -173 -151 -115 -275 30 -65 122 -163 175 -187 l40 -18 0 -164 0 -165 -77
7 c-407 34 -625 177 -674 440 -18 98 -6 314 24 415 29 100 181 524 225 629
106 253 248 383 460 421 76 14 248 4 323 -19z m-787 -93 c-69 -78 -138 -225
-245 -527 l-84 -233 -48 5 c-60 8 -109 37 -138 83 -55 89 12 260 183 471 113
139 230 223 312 223 l39 0 -19 -22z m1282 -3 c169 -84 410 -414 422 -577 4
-46 0 -64 -17 -92 -29 -46 -78 -75 -138 -83 l-48 -5 -84 233 c-107 302 -176
449 -245 527 l-19 22 39 0 c23 0 62 -11 90 -25z m-583 -1132 c21 -3 41 -12 44
-19 15 -41 -49 -129 -119 -165 -38 -19 -38 -19 -76 0 -46 23 -109 91 -118 126
-9 36 1 53 33 58 47 7 195 7 236 0z"/>
<path d="M3029 2201 c-23 -23 -29 -38 -29 -71 0 -91 106 -135 171 -71 64 65
20 171 -71 171 -33 0 -48 -6 -71 -29z"/>
<path d="M3549 2201 c-74 -75 4 -202 104 -168 106 36 80 197 -33 197 -33 0
-48 -6 -71 -29z"/>
</g>
</svg>
