<svg width="512" height="512" viewBox="0 0 512 512" fill="none" xmlns="http://www.w3.org/2000/svg">
<path d="M443.827 195.5C439.444 183.77 432.074 175.288 422.51 170.976C418.121 169.001 413.515 168 408.822 168C388.797 168 368.45 186.667 358.19 214.454C345.492 248.874 352.875 282.589 375.363 292.877C379.885 294.948 384.728 296 389.757 296C410.153 296 430.883 278.881 441.338 253.404C449.238 234.121 450.168 212.477 443.827 195.5ZM426.214 246.295C418.378 265.193 403.22 278.393 389.352 278.393C386.543 278.393 383.864 277.824 381.384 276.699C367.263 270.305 363.522 245.64 372.866 220.547C380.641 199.73 395.314 185.192 408.549 185.192C411.059 185.192 413.528 185.725 415.889 186.78C422.769 189.847 426.511 196.492 428.44 201.525C433.35 214.332 432.518 231.068 426.214 246.295V246.295ZM153.811 214.454C143.551 186.667 123.204 168 103.179 168C98.486 168 93.879 169.001 89.49 170.976C79.925 175.288 72.556 183.77 68.173 195.5C61.832 212.477 62.762 234.121 70.663 253.404C81.118 278.881 101.848 296 122.244 296C127.272 296 132.115 294.948 136.638 292.877C159.126 282.589 166.509 248.874 153.811 214.454ZM130.616 276.698C128.137 277.823 125.456 278.392 122.648 278.392C108.78 278.392 93.622 265.193 85.786 246.294C79.482 231.067 78.65 214.331 83.56 201.523C85.489 196.49 89.231 189.845 96.111 186.778C98.472 185.723 100.941 185.19 103.451 185.19C116.685 185.19 131.358 199.728 139.134 220.545C148.479 245.64 144.737 270.305 130.616 276.698ZM198.347 210.601C200.202 210.682 202.074 210.631 203.91 210.45C214.697 209.391 224.45 203.856 232.117 194.442C244.488 179.251 247.923 155.468 245.318 131.003C241.336 93.3 221.469 65.161 194.776 64C194.776 64 190.965 64.008 189.026 64.193C177.25 65.357 166.545 71.476 158.069 81.888C145.778 96.989 139.871 119.458 142.266 141.992C146.202 179.269 170.836 209.404 198.347 210.601V210.601ZM171.047 91.831C174.97 87.092 181.557 81.254 190.667 80.355C191.798 80.2423 192.935 80.2096 194.071 80.257C212.278 81.049 225.93 103.528 229.007 132.685C231.153 152.835 228.859 172.74 219.162 184.464C214.288 190.362 208.606 193.668 202.281 194.289C201.208 194.393 200.129 194.422 199.052 194.376C179.795 193.538 161.638 169.285 158.579 140.309C156.611 121.779 161.273 103.656 171.047 91.831V91.831ZM256 240C192 240 128 316.074 128 389.128C128 410.926 138.932 428.459 149.667 435.645C162.925 444.516 172.269 448 191.704 448C214.797 448 221.029 439.922 231.84 432.795C239.659 427.643 246.412 423.19 256.001 423.19C265.59 423.19 272.343 427.643 280.161 432.795C290.972 439.922 297.203 448 320.297 448C339.731 448 349.075 444.516 362.333 435.645C373.068 428.459 384 410.926 384 389.128C384 316.074 320 240 256 240ZM353.963 420.776C342.999 428.113 336.597 430.554 320.297 430.554C306.072 430.554 301.673 427.353 294.386 422.044C292.538 420.7 290.627 419.308 288.44 417.867C279.821 412.185 270.05 405.744 256.001 405.744C241.952 405.744 232.181 412.185 223.563 417.865C221.374 419.307 219.463 420.7 217.616 422.044C210.329 427.353 205.93 430.554 191.705 430.554C175.405 430.554 169.002 428.113 158.038 420.776C152.395 417 144 405.456 144 389.128C144 358.851 157.377 324.897 179.783 298.305C190.669 285.384 203.3 274.705 216.309 267.42C229.713 259.917 243.067 256 256 256C268.934 256 282.287 259.917 295.691 267.42C308.701 274.705 321.331 285.384 332.216 298.305C354.623 324.896 368 358.851 368 389.128C368 405.456 359.605 417 353.963 420.776V420.776ZM308.281 210.265C310.117 210.447 311.99 210.497 313.844 210.416C341.355 209.22 365.99 179.084 369.925 141.809C372.32 119.275 366.411 96.805 354.121 81.705C345.645 71.293 335.338 65.477 323.561 64.313C321.622 64.127 317.415 64.001 317.415 64.001C290.722 65.162 270.854 93.116 266.873 130.818C264.269 155.284 267.703 179.066 280.073 194.257C287.741 203.671 297.494 209.206 308.281 210.265V210.265ZM283.186 132.501C286.262 103.345 299.915 80.865 318.122 80.073C319.258 80.0251 320.395 80.0578 321.526 80.171C330.635 81.069 337.222 86.907 341.145 91.647C350.919 103.472 355.581 121.595 353.613 140.126C350.553 169.103 332.397 193.355 313.139 194.193C312.062 194.239 310.983 194.21 309.91 194.106C303.586 193.485 297.903 190.179 293.029 184.281C283.334 172.556 281.039 152.651 283.186 132.501V132.501Z" fill="url(#paint0_linear)" fill-opacity="0.7"/>
<defs>
<linearGradient id="paint0_linear" x1="256" y1="64" x2="256" y2="448" gradientUnits="userSpaceOnUse">
<stop stop-color="#F7B42C"/>
<stop offset="1" stop-color="#FC575E"/>
</linearGradient>
</defs>
</svg>
