<svg width="209" height="299" viewBox="0 0 209 299" fill="none" xmlns="http://www.w3.org/2000/svg">
<path d="M85.8 1.5C70.6 4.4 53.2 12.1 41.3 21.3C33.7 27.1 22.5 39 17.7 46.3C11.9 55 6.19995 67.9 3.29995 78.8C0.999951 87.2 0.699951 90.5 0.699951 103.5C0.699951 117.1 0.999951 119.6 3.79995 130.2C13.4 166.8 41 216.7 81.4 270.5C88.9 280.6 100.2 295 103.1 298.4C104.4 299.9 106.7 297.4 121.5 277.5C168.9 214.1 198.6 159.9 206.6 122C208.5 112.6 208.6 95 206.6 85C198.9 45.1 169.4 13.6 130.1 3.3C117.9 0.0999955 97.6 -0.700004 85.8 1.5ZM122.3 62.7C131.1 66.9 139.8 75.1 143.8 83.3C161.8 119.1 126.6 158.5 89 144.7C49.6 130.3 50.8 74 90.8 60.9C95.1 59.5 98.8 59.1 106 59.3C114.2 59.5 116.4 60 122.3 62.7Z" fill="#0A78DD"/>
</svg>
