<svg width="46" height="46" viewBox="0 0 46 46" fill="none" xmlns="http://www.w3.org/2000/svg">
<path d="M41.2671 18.557H26.8321V4.134C26.8321 1.851 24.9901 0 22.7071 0C20.4241 0 18.5831 1.851 18.5831 4.135V18.567H4.14105C1.85805 18.567 0.00205338 20.418 0.00305338 22.702C0.00205338 23.843 0.463053 24.889 1.21005 25.636C1.95805 26.385 2.99005 26.858 4.13005 26.858H18.5831V41.27C18.5831 42.412 19.0361 43.446 19.7841 44.192C20.5321 44.94 21.5611 45.403 22.7031 45.403C24.9851 45.403 26.8321 43.552 26.8321 41.27V26.857H41.2671C43.5501 26.857 45.4011 24.99 45.4001 22.707C45.3991 20.425 43.5481 18.557 41.2671 18.557Z" fill="#F85F6A"/>
</svg>
