<svg enable-background="new 0 0 24 24" height="512" viewBox="0 0 24 24" width="512" xmlns="http://www.w3.org/2000/svg"><g id="color"><g><circle cx="12" cy="12" fill="#ffd54f" r="10.8"/></g><g><path d="m19.958 7.509c-.226-.029-5.33-.638-7.958.766-2.628-1.403-7.731-.795-7.958-.766-.338.041-.592.329-.592.669 0 1.898.873 5.487 4.175 5.487 2.215 0 3.612-1.68 4.375-3.055.764 1.375 2.16 3.055 4.375 3.055 3.302 0 4.175-3.589 4.175-5.487 0-.34-.254-.628-.592-.669z" fill="#455a64"/></g></g><g id="regular"><g><path d="m12 24c-6.617 0-12-5.383-12-12s5.383-12 12-12 12 5.383 12 12-5.383 12-12 12zm0-22.5c-5.79 0-10.5 4.71-10.5 10.5s4.71 10.5 10.5 10.5 10.5-4.71 10.5-10.5-4.71-10.5-10.5-10.5z"/></g><g><path d="m7.139 14.017c-3.669 0-4.639-3.988-4.639-6.097 0-.378.282-.698.658-.744.264-.034 6.51-.783 9.265 1.097.253.173.376.483.309.782-.381 1.716-2.041 4.962-5.593 4.962zm-3.097-5.425c.136 1.281.705 3.924 3.096 3.924 2.528 0 3.607-2.227 3.973-3.269-1.843-.871-5.224-.81-7.069-.655z"/></g><g><path d="m16.861 14.017c-3.552 0-5.212-3.246-5.593-4.962-.067-.299.056-.609.309-.782 2.755-1.879 9-1.13 9.265-1.097.376.046.658.365.658.743 0 2.109-.97 6.098-4.639 6.098zm-3.973-4.769c.366 1.042 1.445 3.269 3.973 3.269 2.391 0 2.96-2.643 3.096-3.924-1.844-.155-5.228-.215-7.069.655z"/></g><g><path d="m12 19.985c-2.093 0-4.187-.797-5.78-2.391-.293-.293-.293-.768 0-1.061s.768-.293 1.061 0c1.261 1.261 2.937 1.955 4.72 1.955s3.459-.694 4.72-1.955c.293-.293.768-.293 1.061 0s.293.768 0 1.061c-1.595 1.594-3.689 2.391-5.782 2.391z"/></g></g></svg>